<svg width="115" height="28" viewBox="0 0 115 28" fill="none" xmlns="http://www.w3.org/2000/svg">
<path d="M0.36 3.712L5.832 0.399998H15.72V6.064H6.216V11.488H15.72V17.104H5.832L0.36 13.84V3.712ZM33.432 14.8L27.768 11.488H17.88V17.104H27.384V22.576H18.072V28H27.768L33.432 24.736V14.8ZM6.408 19.264V22.576H15.72V28H5.976L0.36 24.736V19.264H6.408ZM33.432 9.328V3.712L27.768 0.399998H17.88V6.064H27.384V9.328H33.432ZM41.5969 0.399998H56.9569V6.064H47.6449V11.488H56.9569V16.96H47.6449V22.576H56.7649V28H41.5969V0.399998ZM59.3089 22.576V28H74.6689V22.576H59.3089ZM74.6689 6.064V0.399998H59.1169V6.064H74.6689ZM66.8929 16.96V11.488H59.1169V16.96H66.8929ZM80.925 0.399998H96.477V5.824H87.165V11.488H96.477V17.104H87.165V28H80.925V0.399998ZM114.189 13.84V3.712L108.573 0.399998H98.637V5.824H107.949V11.488H98.637V17.104H108.573L114.189 13.84Z" fill="black"/>
</svg>
