<svg width="418" height="373" viewBox="0 0 418 373" fill="none" xmlns="http://www.w3.org/2000/svg">
<g opacity="0.9">
<path d="M341.82 96.1351C278.159 -52.2954 -80.1619 -28.208 22.9951 163.97C62.4909 237.535 153.695 281.673 236.714 270.085C329.218 257.195 382.096 189.881 341.82 96.1351Z" fill="white" fill-opacity="0.14"/>
<path d="M341.82 96.1351C278.159 -52.2954 -80.1619 -28.208 22.9951 163.97C62.4909 237.535 153.695 281.673 236.714 270.085C329.218 257.195 382.096 189.881 341.82 96.1351Z" fill="white" fill-opacity="0.14"/>
</g>
<path d="M209 372.46C324.368 372.46 417.892 366.993 417.892 360.249C417.892 353.505 324.368 348.038 209 348.038C93.632 348.038 0.107727 353.505 0.107727 360.249C0.107727 366.993 93.632 372.46 209 372.46Z" fill="#F5F5F5" fill-opacity="0.4"/>
<path d="M353.145 207.233H120.337C117.859 207.233 115.92 205.18 116.027 202.694L123.892 59.5122C124 57.0267 126.154 54.9736 128.74 54.9736H361.549C364.026 54.9736 365.966 57.0267 365.858 59.5122L357.993 202.694C357.778 205.18 355.623 207.233 353.145 207.233Z" fill="#263238"/>
<path d="M255.217 79.2875H232.701C225.16 79.2875 219.342 73.128 219.773 65.6717L219.989 61.4573C220.42 54.2171 226.668 48.1657 233.886 48.1657H256.402C263.943 48.1657 269.761 54.3252 269.33 61.8895L269.114 66.104C268.791 73.3441 262.435 79.2875 255.217 79.2875Z" fill="#263238"/>
<path d="M275.686 355.818H268.468L248.645 51.4075H255.863L275.686 355.818Z" fill="#263238"/>
<path d="M221.605 355.818H228.823L248.645 51.4075H241.427L221.605 355.818Z" fill="#263238"/>
<path d="M351.853 207.233H119.044C116.566 207.233 114.627 205.18 114.735 202.694L122.599 59.5122C122.707 57.0267 124.861 54.9736 127.447 54.9736H360.256C362.734 54.9736 364.673 57.0267 364.565 59.5122L356.701 202.694C356.593 205.18 354.438 207.233 351.853 207.233Z" fill="#407BFF"/>
<path opacity="0.4" d="M122.814 202.802C120.768 202.802 119.259 201.181 119.367 199.128L126.801 62.8621C126.908 60.8089 128.632 59.188 130.679 59.188H356.593C358.64 59.188 360.148 60.8089 360.04 62.8621L352.607 199.128C352.499 201.181 350.775 202.802 348.728 202.802H122.814Z" fill="#263238"/>
<path opacity="0.1" d="M350.129 130.617H282.15C280.426 130.617 279.133 129.212 279.241 127.483L282.689 65.4556C282.689 65.2394 282.473 65.0233 282.258 65.0233C282.042 65.0233 281.827 65.2394 281.827 65.4556L278.379 127.483C278.272 129.212 276.871 130.617 275.147 130.617H204.475C202.752 130.617 201.459 129.212 201.566 127.483L205.014 65.4556C205.014 65.2394 204.798 65.0233 204.583 65.0233C204.367 65.0233 204.152 65.2394 204.152 65.4556L200.705 127.483C200.597 129.212 199.196 130.617 197.473 130.617H129.278C129.063 130.617 128.847 130.833 128.847 131.049C128.847 131.265 129.063 131.481 129.278 131.481H197.257C198.981 131.481 200.274 132.886 200.166 134.615L196.719 196.643C196.719 196.859 196.934 197.075 197.149 197.075C197.365 197.075 197.58 196.859 197.58 196.643L201.028 134.615C201.136 132.886 202.536 131.481 204.26 131.481H274.932C276.656 131.481 277.948 132.886 277.841 134.615L274.393 196.643C274.393 196.859 274.609 197.075 274.824 197.075C275.04 197.075 275.255 196.859 275.255 196.643L278.703 134.615C278.81 132.886 280.211 131.481 281.935 131.481H349.913C350.129 131.481 350.344 131.265 350.344 131.049C350.56 130.833 350.344 130.617 350.129 130.617Z" fill="white"/>
<path opacity="0.4" d="M239.273 76.2618H211.909L210.401 104.142L237.657 104.898L239.273 76.2618Z" fill="#263238"/>
<path d="M236.256 103.71C227.099 103.277 217.942 102.845 208.892 102.413C210.401 92.9033 211.37 83.5019 211.693 73.9925C220.851 74.4247 230.116 74.857 239.273 75.2892C238.842 84.6906 237.872 94.2001 236.256 103.71Z" fill="white"/>
<path opacity="0.4" d="M272.131 94.9565L244.767 97.0097L245.413 124.782L272.777 123.485L272.131 94.9565Z" fill="#263238"/>
<path d="M271.269 122.404C262.112 122.62 252.955 122.945 243.69 123.161C244.444 113.651 244.767 104.142 244.336 94.7404C253.601 94.5242 262.758 94.2001 272.023 93.9839C272.454 103.277 272.131 112.787 271.269 122.404Z" fill="#6DBFD1"/>
<path opacity="0.4" d="M192.302 145.638L141.883 143.692L137.358 188.646L187.669 191.78L192.302 145.638Z" fill="#263238"/>
<path d="M185.084 189.727C168.277 188.322 151.363 187.025 134.557 185.621C137.897 170.384 140.267 155.147 141.56 139.802C158.474 141.207 175.495 142.504 192.409 143.909C191.009 159.253 188.639 174.49 185.084 189.727Z" fill="white"/>
<g opacity="0.3">
<path opacity="0.3" d="M140.375 82.6374C138.759 82.6374 137.574 81.3407 137.681 79.8278C137.789 78.2069 139.082 77.0182 140.698 77.0182C142.314 77.0182 143.499 78.3149 143.391 79.8278C143.284 81.3407 141.991 82.6374 140.375 82.6374Z" fill="#263238"/>
<path opacity="0.8" d="M184.976 82.6374H149.963C148.347 82.6374 147.162 81.3407 147.27 79.8278C147.377 78.2069 148.67 77.0182 150.286 77.0182H185.299C186.915 77.0182 188.1 78.3149 187.992 79.8278C187.885 81.3407 186.484 82.6374 184.976 82.6374Z" fill="#263238"/>
<path opacity="0.3" d="M139.728 95.0646C138.112 95.0646 136.927 93.7678 137.035 92.2549C137.143 90.634 138.436 89.4453 140.052 89.4453C141.668 89.4453 142.853 90.7421 142.745 92.2549C142.637 93.7678 141.237 95.0646 139.728 95.0646Z" fill="#263238"/>
<path opacity="0.8" d="M190.47 95.0646H149.316C147.701 95.0646 146.515 93.7678 146.623 92.2549C146.731 90.634 148.024 89.4453 149.64 89.4453H190.793C192.409 89.4453 193.594 90.7421 193.487 92.2549C193.379 93.7678 191.978 95.0646 190.47 95.0646Z" fill="#263238"/>
<path opacity="0.3" d="M138.974 107.492C137.358 107.492 136.173 106.195 136.281 104.682C136.389 103.061 137.681 101.872 139.297 101.872C140.913 101.872 142.098 103.169 141.991 104.682C141.883 106.195 140.59 107.492 138.974 107.492Z" fill="#263238"/>
<path opacity="0.8" d="M168.601 107.492H148.562C146.946 107.492 145.761 106.195 145.869 104.682C145.977 103.061 147.27 101.872 148.886 101.872H168.924C170.54 101.872 171.725 103.169 171.617 104.682C171.509 106.195 170.217 107.492 168.601 107.492Z" fill="#263238"/>
<path opacity="0.8" d="M187.238 119.919H167.2C165.584 119.919 164.399 118.622 164.507 117.109C164.614 115.488 165.907 114.3 167.523 114.3H187.454C189.07 114.3 190.255 115.596 190.147 117.109C190.147 118.622 188.746 119.919 187.238 119.919Z" fill="#263238"/>
<path opacity="0.3" d="M138.328 119.919C136.712 119.919 135.527 118.622 135.635 117.109C135.742 115.488 137.035 114.3 138.651 114.3C140.267 114.3 141.452 115.596 141.344 117.109C141.237 118.622 139.944 119.919 138.328 119.919Z" fill="#263238"/>
<path opacity="0.8" d="M157.181 119.919H147.916C146.3 119.919 145.115 118.622 145.223 117.109C145.33 115.488 146.623 114.3 148.239 114.3H157.504C159.12 114.3 160.305 115.596 160.197 117.109C160.09 118.622 158.689 119.919 157.181 119.919Z" fill="#263238"/>
</g>
<path d="M225.268 156.876H211.801L209.862 190.916H223.436L225.268 156.876Z" fill="#6DBFD1"/>
<path d="M245.844 163.9H232.378L230.87 190.916H244.444L245.844 163.9Z" fill="#6DBFD1"/>
<path d="M267.822 145.746H254.247L251.77 190.916H265.344L267.822 145.746Z" fill="#6DBFD1"/>
<path d="M214.818 176.111C213.525 176.111 212.124 176.111 210.724 176.003C208.354 175.895 205.229 175.571 202.536 174.382C202.105 174.166 201.89 173.626 202.105 173.193C202.321 172.761 202.859 172.545 203.29 172.761C205.768 173.842 208.677 174.166 210.831 174.274C227.099 175.138 241.32 170.816 255.756 160.874C259.203 158.497 264.267 154.066 267.391 149.528C267.714 149.096 268.253 148.987 268.576 149.312C269.007 149.636 269.114 150.176 268.791 150.5C265.559 155.255 260.388 159.686 256.725 162.279C243.151 171.681 229.792 176.111 214.818 176.111Z" fill="white"/>
<path d="M270.838 156.228C270.73 156.228 270.623 156.228 270.515 156.12C270.084 155.903 269.869 155.471 270.084 154.931C271.377 151.905 271.592 148.555 270.838 145.53C267.391 147.799 263.836 149.744 259.957 151.257C259.526 151.473 258.988 151.257 258.772 150.825C258.557 150.392 258.772 149.852 259.203 149.636C263.189 148.015 267.068 145.854 270.73 143.368C270.946 143.26 271.269 143.152 271.485 143.26C271.7 143.368 271.915 143.584 272.023 143.801C273.316 147.583 273.101 151.797 271.592 155.579C271.485 156.012 271.161 156.228 270.838 156.228Z" fill="white"/>
<path d="M342.264 122.728H291.846C290.984 122.728 290.23 122.404 289.584 121.756C289.045 121.107 288.722 120.351 288.722 119.487L291.092 76.694C291.2 74.965 292.708 73.5602 294.431 73.5602H344.85C345.712 73.5602 346.466 73.8844 347.112 74.5328C347.651 75.1812 347.974 75.9376 347.974 76.8021L345.604 119.595C345.496 121.216 343.988 122.728 342.264 122.728ZM294.431 74.4247C293.139 74.4247 292.061 75.5053 291.954 76.8021L289.584 119.595C289.584 120.243 289.799 120.783 290.122 121.216C290.553 121.648 291.092 121.864 291.738 121.864H342.157C343.45 121.864 344.527 120.783 344.635 119.487L347.005 76.694C347.005 76.0457 346.789 75.5053 346.466 75.0731C346.035 74.6408 345.496 74.4247 344.85 74.4247H294.431Z" fill="#407BFF"/>
<path d="M347.005 85.7712H290.984C290.769 85.7712 290.553 85.5551 290.553 85.339C290.553 85.1229 290.769 84.9067 290.984 84.9067H347.005C347.22 84.9067 347.436 85.1229 347.436 85.339C347.436 85.5551 347.22 85.7712 347.005 85.7712Z" fill="#407BFF"/>
<path d="M302.188 122.728C301.973 122.728 301.757 122.512 301.757 122.296L303.804 85.339C303.804 85.1229 304.02 84.9067 304.235 84.9067C304.45 84.9067 304.666 85.1229 304.666 85.339L302.619 122.296C302.619 122.512 302.511 122.728 302.188 122.728Z" fill="#407BFF"/>
<path d="M340.648 90.2018H310.268C310.053 90.2018 309.837 89.9856 309.837 89.7695C309.837 89.5534 310.053 89.3373 310.268 89.3373H340.648C340.864 89.3373 341.079 89.5534 341.079 89.7695C341.079 89.9856 340.864 90.2018 340.648 90.2018Z" fill="#407BFF"/>
<path d="M336.016 95.4968H309.945C309.729 95.4968 309.514 95.2807 309.514 95.0646C309.514 94.8484 309.729 94.6323 309.945 94.6323H336.016C336.231 94.6323 336.447 94.8484 336.447 95.0646C336.447 95.3888 336.231 95.4968 336.016 95.4968Z" fill="#407BFF"/>
<path d="M324.812 101.116H309.622C309.406 101.116 309.191 100.9 309.191 100.684C309.191 100.468 309.406 100.252 309.622 100.252H324.812C325.027 100.252 325.243 100.468 325.243 100.684C325.243 100.9 325.027 101.116 324.812 101.116Z" fill="#407BFF"/>
<path d="M327.613 111.922H309.083C308.868 111.922 308.652 111.706 308.652 111.49C308.652 111.274 308.868 111.058 309.083 111.058H327.613C327.828 111.058 328.044 111.274 328.044 111.49C328.044 111.706 327.828 111.922 327.613 111.922Z" fill="#407BFF"/>
<path d="M323.95 117.541H308.76C308.544 117.541 308.329 117.325 308.329 117.109C308.329 116.893 308.544 116.677 308.76 116.677H323.95C324.165 116.677 324.381 116.893 324.381 117.109C324.381 117.325 324.165 117.541 323.95 117.541Z" fill="#407BFF"/>
<path d="M332.784 117.541H327.936C327.721 117.541 327.505 117.325 327.505 117.109C327.505 116.893 327.721 116.677 327.936 116.677H332.784C332.999 116.677 333.215 116.893 333.215 117.109C333.215 117.325 332.999 117.541 332.784 117.541Z" fill="#407BFF"/>
<path d="M337.74 106.519H309.298C309.083 106.519 308.868 106.303 308.868 106.087C308.868 105.871 309.083 105.655 309.298 105.655H337.74C337.955 105.655 338.171 105.871 338.171 106.087C338.171 106.303 338.063 106.519 337.74 106.519Z" fill="#407BFF"/>
<path d="M311.238 184.972C304.666 184.972 299.279 183.027 295.94 179.353C292.385 175.463 290.876 169.411 291.846 162.603C292.492 158.497 293.785 155.039 295.832 152.229C297.879 149.528 300.895 147.259 304.666 145.53C313.069 141.747 322.873 141.855 330.737 145.854C334.292 147.691 336.555 149.852 337.309 152.554C337.417 152.986 337.201 153.526 336.77 153.634C336.339 153.742 335.801 153.526 335.693 153.094C335.046 150.933 333.107 148.988 329.983 147.475C322.55 143.692 313.285 143.584 305.42 147.15C301.865 148.771 299.172 150.825 297.233 153.31C295.401 155.795 294.108 159.037 293.57 162.819C292.708 169.087 294.001 174.598 297.233 178.164C301.757 183.027 309.083 183.351 313.177 183.135C320.61 182.703 327.074 180.109 331.276 175.787C336.231 170.708 337.524 163.144 334.508 158.173C333.861 157.2 332.676 155.579 330.737 155.363C330.306 155.363 329.875 154.931 329.983 154.391C329.983 153.958 330.414 153.526 330.953 153.634C332.892 153.85 334.723 155.147 336.016 157.308C339.463 162.927 338.063 171.464 332.569 177.084C328.044 181.73 321.257 184.54 313.285 184.972C312.53 184.972 311.884 184.972 311.238 184.972Z" fill="white"/>
<path d="M87.5861 93.4436L84.4619 98.8467L81.4454 104.358C79.3985 108.032 77.567 111.814 75.7356 115.596C74.8737 117.433 74.0119 119.379 73.2578 121.216L73.15 121.54V121.648C73.15 121.756 73.0423 121.756 73.0423 121.756C72.9346 121.864 72.9346 121.972 72.9346 122.08C72.8268 122.296 72.9346 122.728 73.0423 123.269C73.3655 124.349 74.4428 125.862 75.6279 127.267C76.8129 128.672 78.4289 130.077 79.8294 131.265L77.3516 136.668C76.0588 136.344 74.9815 135.912 73.9042 135.48C72.8268 135.048 71.7495 134.399 70.5645 133.751C68.4098 132.454 66.2552 130.833 64.5315 128.132C63.6696 126.835 62.9155 125.106 62.5923 123.161C62.4846 122.188 62.3768 121.216 62.4846 120.243C62.5923 119.703 62.5923 119.27 62.7 118.838L62.9155 118.082L63.0232 117.65C63.6696 115.488 64.4237 113.219 65.2856 111.166C66.9016 106.951 68.733 102.845 70.7799 98.8467C71.7495 96.9016 72.8268 94.8484 73.9042 92.9033C74.9815 90.9582 76.0588 89.0131 77.3516 87.068L87.5861 93.4436Z" fill="#FFC3BD"/>
<path d="M77.1361 130.725L82.8459 129.212L83.1691 138.397C83.1691 138.397 78.7521 139.046 76.0588 136.344L77.1361 130.725Z" fill="#FFC3BD"/>
<path d="M90.8181 127.699L89.5253 135.696L83.1691 138.397L82.8459 129.212L90.8181 127.699Z" fill="#FFC3BD"/>
<path d="M114.196 50.3269C114.304 50.9753 114.735 51.4075 115.166 51.2995C115.596 51.1914 115.812 50.6511 115.704 50.0027C115.596 49.3543 115.166 48.9221 114.735 49.0302C114.304 49.0302 114.088 49.6785 114.196 50.3269Z" fill="#263238"/>
<path d="M114.735 51.4075C114.735 51.4075 116.889 54.7574 118.828 56.1623C117.967 57.459 115.92 57.3509 115.92 57.3509L114.735 51.4075Z" fill="#ED847E"/>
<path d="M111.287 47.3012C111.179 47.3012 111.072 47.3012 111.072 47.1931C110.964 47.085 110.964 46.7609 111.072 46.6528C112.472 45.1399 114.196 45.3561 114.304 45.3561C114.519 45.3561 114.627 45.5722 114.627 45.7883C114.627 46.0044 114.411 46.1125 114.196 46.1125C114.088 46.1125 112.795 45.8964 111.718 47.085C111.395 47.1931 111.287 47.3012 111.287 47.3012Z" fill="#263238"/>
<path d="M96.4201 59.0799C97.6052 64.9153 98.6825 75.5054 94.5887 79.3956C94.5887 79.3956 96.2047 85.339 106.978 85.339C118.828 85.339 112.58 79.3956 112.58 79.3956C106.116 77.8827 106.331 73.0199 107.409 68.4813L96.4201 59.0799Z" fill="#FFC3BD"/>
<path d="M92.3263 80.4762C91.4644 78.8553 90.4949 77.0182 92.434 76.4779C94.5887 75.8295 108.486 74.6408 112.58 75.8295C111.287 78.0988 113.442 80.8004 113.442 80.8004L92.3263 80.4762Z" fill="#263238"/>
<path d="M57.2057 351.279C57.9598 351.496 58.8216 351.496 59.1448 351.171C59.2526 351.063 59.468 350.739 59.3603 350.307C59.2526 350.091 59.1448 349.875 58.9294 349.767C57.8521 349.226 55.3742 350.307 55.2665 350.307C55.1588 350.307 55.1588 350.415 55.1588 350.523C55.1588 350.631 55.1588 350.631 55.2665 350.739C55.6974 350.739 56.4515 351.063 57.2057 351.279ZM58.4985 349.983C58.6062 349.983 58.6062 349.983 58.7139 350.091C58.8216 350.199 58.9294 350.307 59.0371 350.415C59.1448 350.739 59.0371 350.847 58.9294 350.847C58.4984 351.171 56.8825 350.847 55.8052 350.415C56.5593 350.199 57.8521 349.875 58.4985 349.983Z" fill="#407BFF"/>
<path d="M55.2665 350.631C55.3742 350.631 55.3742 350.631 55.2665 350.631C56.2361 350.415 58.1753 349.01 58.1753 348.146C58.1753 347.93 58.1753 347.713 57.7443 347.497C57.4211 347.389 57.2057 347.389 56.8825 347.605C55.8052 348.146 55.1588 350.307 55.1588 350.415C55.1588 350.415 55.1588 350.523 55.2665 350.631ZM57.5289 347.822C57.6366 347.822 57.6366 347.822 57.5289 347.822C57.8521 347.93 57.8521 348.038 57.8521 348.038C57.8521 348.578 56.5593 349.659 55.6974 350.091C55.9129 349.442 56.4515 348.254 57.0979 347.822C57.2057 347.822 57.4211 347.822 57.5289 347.822Z" fill="#407BFF"/>
<path d="M115.704 352.576C116.674 352.576 117.751 352.468 118.074 351.928C118.182 351.82 118.29 351.496 118.074 351.063C117.967 350.847 117.751 350.739 117.428 350.631C116.135 350.307 113.334 351.82 113.226 351.928C113.119 351.928 113.119 352.036 113.119 352.144C113.119 352.252 113.226 352.252 113.226 352.252C113.765 352.468 114.735 352.576 115.704 352.576ZM116.889 351.063C116.997 351.063 117.105 351.063 117.212 351.063C117.428 351.063 117.536 351.171 117.536 351.28C117.643 351.496 117.643 351.604 117.536 351.712C117.212 352.252 115.166 352.252 113.657 352.036C114.627 351.712 116.027 351.063 116.889 351.063Z" fill="#407BFF"/>
<path d="M113.334 352.36C114.411 351.928 116.243 350.199 116.135 349.334C116.135 349.118 115.92 348.902 115.489 348.794C115.058 348.794 114.735 348.902 114.411 349.118C113.442 349.983 113.226 352.036 113.226 352.144C113.226 352.252 113.226 352.252 113.334 352.36C113.226 352.36 113.226 352.36 113.334 352.36ZM115.165 349.118H115.273C115.596 349.118 115.596 349.334 115.596 349.334C115.704 349.875 114.411 351.171 113.442 351.82C113.55 351.171 113.873 349.875 114.519 349.334C114.735 349.226 114.95 349.118 115.165 349.118Z" fill="#407BFF"/>
<path d="M104.608 352.144H112.472L113.334 333.774H105.362L104.608 352.144Z" fill="#FFC3BD"/>
<path d="M46.5402 348.47L54.1892 350.199L61.9459 333.017L54.2969 331.396L46.5402 348.47Z" fill="#FFC3BD"/>
<path d="M54.9433 349.443L46.217 347.605C45.8938 347.497 45.5706 347.713 45.4629 348.038L42.4464 354.629C42.1232 355.278 42.5541 356.142 43.3083 356.25C46.3247 356.899 47.833 357.007 51.7113 357.871C54.0815 358.412 59.3603 359.708 62.5923 360.357C65.7165 361.005 67.0093 357.979 65.7165 357.331C60.0067 354.738 57.6366 352.468 56.1284 350.307C55.8052 349.767 55.482 349.551 54.9433 349.443Z" fill="#263238"/>
<path d="M112.472 351.28H103.854C103.53 351.28 103.207 351.496 103.207 351.82L101.591 358.844C101.376 359.6 102.022 360.249 102.776 360.249C105.901 360.249 110.425 360.033 114.304 360.033C118.936 360.033 122.814 360.249 128.201 360.249C131.433 360.249 132.403 357.007 131.002 356.683C124.861 355.278 119.798 355.17 114.411 351.82C113.765 351.496 113.119 351.28 112.472 351.28Z" fill="#263238"/>
<path d="M80.4758 81.2326C73.0423 82.9616 66.9016 101.981 66.9016 101.981L81.7686 113.327C81.7686 113.327 87.2629 108.14 89.633 98.6306C92.2186 88.6889 88.017 79.5036 80.4758 81.2326Z" fill="#3B32C3"/>
<path opacity="0.2" d="M80.4758 81.2326C73.0423 82.9616 66.9016 101.981 66.9016 101.981L81.7686 113.327C81.7686 113.327 87.2629 108.14 89.633 98.6306C92.2186 88.6889 88.017 79.5036 80.4758 81.2326Z" fill="#3B32C3"/>
<path opacity="0.2" d="M86.832 95.1726C82.8459 99.1709 81.4454 106.411 81.1222 112.787L81.7686 113.327C81.7686 113.327 87.2629 108.14 89.633 98.6306C89.7407 98.0903 89.9562 97.4419 90.0639 96.9016L86.832 95.1726Z" fill="black"/>
<path opacity="0.2" d="M113.334 333.774L112.903 343.283H104.931L105.362 333.774H113.334Z" fill="black"/>
<path opacity="0.2" d="M54.2969 331.396L61.9459 333.017L57.9598 341.878L50.2031 340.257L54.2969 331.396Z" fill="black"/>
<path d="M93.0804 53.2446C95.1273 60.8089 95.8814 65.4556 100.622 68.5894C107.624 73.3441 116.458 67.8329 116.674 59.8364C116.889 52.5962 113.549 41.3578 105.362 39.8449C97.3897 38.224 91.0335 45.5722 93.0804 53.2446Z" fill="#FFC3BD"/>
<path d="M96.5279 65.5636C99.7598 67.4007 111.503 61.2412 109.133 51.8398C109.133 51.8398 113.657 46.4367 113.119 40.4933C112.58 34.5499 108.486 32.2806 104.177 33.5773C100.298 34.6579 100.514 36.8192 100.514 36.8192C100.514 36.8192 82.415 38.9804 86.2933 46.3286C78.8598 54.3252 92.5418 63.2943 96.5279 65.5636Z" fill="#263238"/>
<path d="M86.7242 46.977C86.7242 46.977 84.5696 43.1948 81.4454 45.356C82.9536 45.356 85.3237 45.5722 86.7242 46.977Z" fill="#263238"/>
<path d="M112.58 44.4916C112.58 44.4916 116.566 35.5224 110.425 32.7128C112.472 35.5224 113.55 40.1691 112.58 44.4916Z" fill="#263238"/>
<path d="M106.008 53.5688C106.547 55.5139 107.84 57.2429 109.24 58.3235C111.287 59.8364 112.795 58.3235 112.688 56.0542C112.58 54.001 111.287 50.6511 109.025 50.0027C106.762 49.2463 105.362 51.1914 106.008 53.5688Z" fill="#FFC3BD"/>
<path d="M110.21 150.284C110.21 150.284 101.268 210.907 96.3124 233.708C90.9258 258.562 61.9459 340.906 61.9459 340.906L47.7253 337.88C47.7253 337.88 67.9789 270.773 72.5036 235.977C75.9511 209.286 82.8459 150.284 82.8459 150.284H110.21Z" fill="#263238"/>
<path d="M65.3933 336.151C65.501 336.151 62.7 341.338 62.7 341.338L46.7557 337.88L48.0485 333.125L65.3933 336.151Z" fill="#407BFF"/>
<path opacity="0.3" d="M104.608 171.897C94.2655 173.95 95.3428 212.744 96.5279 232.736C99.5444 218.579 103.854 191.456 106.87 172.113C106.224 171.789 105.47 171.681 104.608 171.897Z" fill="black"/>
<path d="M125.292 150.284C125.292 150.284 126.37 209.61 125.508 233.816C124.646 258.995 115.812 341.446 115.812 341.446H102.453C102.453 341.446 101.914 260.507 101.376 235.761C100.729 208.854 97.4974 150.284 97.4974 150.284H125.292Z" fill="#263238"/>
<path d="M124.754 81.6649C124.754 81.6649 124.754 105.5 126.5 162.5C113.788 162.5 86.2484 162.5 80 162.5C79.6768 156.016 86.6165 111.922 80.3681 81.2326C80.3681 81.2326 87.5861 79.7198 94.5887 79.3956C99.9753 79.1795 107.84 78.9633 112.58 79.3956C118.936 80.044 124.754 81.6649 124.754 81.6649Z" fill="#3B32C3"/>
<path opacity="0.2" d="M124.901 100.08L124.75 100L118.022 101.684C117.644 106.497 122.821 112.353 125.24 115C125.04 108.5 125.052 103.93 124.901 100.08Z" fill="black"/>
<path opacity="0.4" d="M199.735 108.356H172.371L170.863 136.236L198.119 136.993L199.735 108.356Z" fill="#263238"/>
<path d="M185.299 126.294C176.142 125.214 167.092 124.025 157.935 122.945C160.197 113.651 161.813 104.25 162.891 94.9565C172.048 96.0371 181.205 97.2258 190.362 98.3064C189.285 107.708 187.561 117.001 185.299 126.294Z" fill="#6DBFD1"/>
<path d="M118.397 336.043C118.505 336.043 117.643 341.662 117.643 341.662H101.376L100.945 336.691L118.397 336.043Z" fill="#407BFF"/>
<path d="M128.74 88.905C129.925 90.8502 131.325 92.9033 132.726 94.9565C134.126 96.9016 135.527 98.9548 137.035 100.9C139.944 104.682 143.068 108.356 146.515 111.49C147.377 112.246 148.239 113.003 149.101 113.651L149.747 114.192C149.64 114.192 149.532 114.083 149.317 114.083C148.993 114.083 148.886 114.083 148.993 114.083C149.209 114.192 149.963 114.083 150.717 113.651C151.579 113.327 152.548 112.787 153.41 112.246C157.181 109.869 161.059 106.627 164.83 103.385L169.462 107.168C166.554 111.814 163.429 116.029 159.12 119.811C158.043 120.783 156.858 121.756 155.457 122.512C154.057 123.377 152.441 124.133 150.071 124.565C148.886 124.674 147.485 124.674 145.977 124.241C145.223 124.025 144.469 123.593 143.93 123.269L142.96 122.728C141.775 121.972 140.59 121.108 139.405 120.243C134.988 116.677 131.218 112.679 127.77 108.572C126.046 106.519 124.43 104.358 122.922 102.197C121.414 99.9274 119.906 97.8742 118.505 95.3888L128.74 88.905Z" fill="#FFC3BD"/>
<path d="M113.119 93.6598C110.641 104.25 129.817 114.732 129.817 114.732L142.314 100.035C142.314 100.035 136.604 91.3905 129.602 84.5826C120.875 76.2618 115.058 85.5551 113.119 93.6598Z" fill="#3B32C3"/>
<path d="M163.537 105.439L166.446 95.9291L174.203 99.8193C174.203 99.8193 173.125 106.735 167.415 107.924L163.537 105.439Z" fill="#FFC3BD"/>
<path d="M169.57 93.3356L176.573 95.2807L174.203 99.8193L166.446 95.9291L169.57 93.3356Z" fill="#FFC3BD"/>
</svg>
