<svg width="118" height="17" viewBox="0 0 118 17" fill="none" xmlns="http://www.w3.org/2000/svg">
<path d="M12.298 3.052L9.828 5.73C8.892 4.86333 7.93 4.43 6.942 4.43C6.49133 4.43 6.10133 4.534 5.772 4.742C5.44267 4.93267 5.278 5.21867 5.278 5.6C5.278 5.98133 5.45133 6.26733 5.798 6.458C6.14467 6.64867 6.79467 6.85667 7.748 7.082C10.66 7.758 12.116 9.214 12.116 11.45C12.116 13.1487 11.5353 14.4053 10.374 15.22C9.23 16.0173 7.86067 16.416 6.266 16.416C5.122 16.416 4.01267 16.2253 2.938 15.844C1.88067 15.4453 1.014 14.882 0.338 14.154L2.834 11.346C3.75267 12.4207 4.87933 12.958 6.214 12.958C6.64733 12.958 7.02 12.8627 7.332 12.672C7.644 12.464 7.8 12.1433 7.8 11.71C7.8 11.294 7.60067 10.982 7.202 10.774C6.80333 10.5487 6.10133 10.306 5.096 10.046C4.35067 9.85533 3.70933 9.63 3.172 9.37C2.652 9.11 2.17533 8.67667 1.742 8.07C1.326 7.46333 1.118 6.72667 1.118 5.86C1.118 4.26533 1.69 3.052 2.834 2.22C3.99533 1.37067 5.32133 0.945999 6.812 0.945999C7.852 0.945999 8.85733 1.128 9.828 1.492C10.816 1.856 11.6393 2.376 12.298 3.052ZM27.7897 2.974L25.1377 6.042C24.4964 5.19267 23.5604 4.768 22.3297 4.768C21.3071 4.768 20.4577 5.14933 19.7817 5.912C19.1231 6.67467 18.7937 7.59333 18.7937 8.668C18.7937 9.76 19.1231 10.6787 19.7817 11.424C20.4577 12.1693 21.3331 12.542 22.4077 12.542C23.6557 12.542 24.6004 12.1347 25.2417 11.32L27.7897 14.466C26.4551 15.766 24.6351 16.416 22.3297 16.416C19.9724 16.416 18.0224 15.714 16.4797 14.31C14.9544 12.906 14.1917 11.0253 14.1917 8.668C14.1917 6.36267 14.9631 4.49933 16.5057 3.078C18.0657 1.65667 19.9984 0.945999 22.3037 0.945999C23.3437 0.945999 24.3664 1.13667 25.3717 1.518C26.3771 1.882 27.1831 2.36733 27.7897 2.974ZM39.103 16V10.124H34.371V16H30.029V1.362H34.371V6.796H39.103V1.362H43.445V16H39.103ZM47.0915 16V1.362H57.4655V4.664H51.3295V7.004H57.1275V10.176H51.3295V12.672H57.8295V16H47.0915ZM66.8035 16H61.0055V1.362H66.6735C67.8349 1.362 68.9009 1.492 69.8715 1.752C70.8595 1.99467 71.7609 2.38467 72.5755 2.922C73.4075 3.45933 74.0489 4.21333 74.4995 5.184C74.9675 6.15467 75.2015 7.30733 75.2015 8.642C75.2015 9.87267 74.9675 10.9733 74.4995 11.944C74.0315 12.9147 73.3989 13.686 72.6015 14.258C71.8215 14.83 70.9375 15.2633 69.9495 15.558C68.9615 15.8527 67.9129 16 66.8035 16ZM65.3215 4.768V12.542H66.4135C69.2215 12.542 70.6255 11.2247 70.6255 8.59C70.6255 6.042 69.2475 4.768 66.4915 4.768H65.3215ZM84.5687 16.416C82.5233 16.416 80.9027 15.87 79.7067 14.778C78.528 13.6687 77.9387 12.1867 77.9387 10.332V1.362H82.2807V10.046C82.2807 10.8433 82.48 11.476 82.8787 11.944C83.2947 12.3947 83.8667 12.62 84.5947 12.62C85.34 12.62 85.9207 12.3947 86.3367 11.944C86.7527 11.476 86.9607 10.8433 86.9607 10.046V1.362H91.3027V10.332C91.3027 12.1867 90.696 13.6687 89.4827 14.778C88.2867 15.87 86.6487 16.416 84.5687 16.416ZM94.8513 16V1.362H99.1933V12.36H104.601V16H94.8513ZM107.09 16V1.362H117.464V4.664H111.328V7.004H117.126V10.176H111.328V12.672H117.828V16H107.09Z" fill="#0B00B5"/>
</svg>
